<svg id="Camada_1" data-name="Camada 1" xmlns="http://www.w3.org/2000/svg" viewBox="0 0 1920 1080"><defs><style>.cls-1{fill:#285680;}.cls-2{fill:#24ae5f;}.cls-3{fill:#fac176;}.cls-4{fill:#88c057;}</style></defs><title>Prancheta 18</title><path class="cls-1" d="M934.35,168.36A370.22,370.22,0,0,0,775.18,216.5H934.35Z"/><path class="cls-1" d="M714.88,280.61c-2.81,44.84,2.8,25.22,0,67.25s14,42,0,67.25c-11.16,20.08-22.31,26-34.88,36v70.61H934.35V470.85H730.87V369.11H883.48V318.24H730.87v-72q-9.39,7.33-18.29,15.24C715.21,266.5,715.37,272.68,714.88,280.61Z"/><path class="cls-2" d="M714.88,415.11c14-25.21-2.81-25.21,0-67.25s-2.81-22.41,0-67.25c.49-7.93.33-14.11-2.3-19.09A376.19,376.19,0,0,0,680,294.31v156.8C692.57,441.07,703.72,435.19,714.88,415.11Z"/><path class="cls-1" d="M891.55,736.68q43.23-30.52,43.23-76.31,0-42.21-29.76-72t-72-29.76H680.43V786.15A375.38,375.38,0,0,0,731.3,834V762.11H833q20.85,0,35.87,15t15,35.86V904.7a373.3,373.3,0,0,0,50.87,6.94V813Q934.78,767.2,891.55,736.68Zm-22.64-40.45q-15,15-35.87,15H731.3V609.5H833q20.85,0,35.87,15t15,35.86Q883.91,681.23,868.91,696.23Z"/><path class="cls-3" d="M891.55,736.68q43.23-30.52,43.23-76.31c0-.83,0-1.65,0-2.47L895,659.46l-11.26-3.54c.11,1.46.18,2.94.18,4.45q0,20.86-15,35.86t-35.87,15H731.3v-75l-7.88,1.83-35.31,17.07-7.68,10.35V786.15c.76.87,1.53,1.72,2.3,2.58l48.57,22.68v-49.3H833q20.85,0,35.87,15t15,35.86V904.7a373.3,373.3,0,0,0,50.87,6.94V813Q934.78,767.2,891.55,736.68Z"/><path class="cls-3" d="M895.17,812.26c-11.89-21.61-37.82-58.34-38.89-51.86-.68,4-97.64-28.63-175.85-56v81.72c.76.87,1.53,1.72,2.3,2.58l48.57,22.68v-49.3H833q20.85,0,35.87,15t15,35.86V904.7a373.3,373.3,0,0,0,50.87,6.94V840.05C918.06,833.11,901.3,823.41,895.17,812.26Z"/><path class="cls-4" d="M934.78,660.37c0-.83,0-1.65,0-2.47L895,659.46l-11.25-3.54c.11,1.46.18,2.94.18,4.45q0,20.86-15,35.86t-35.87,15H731.3v-75l-7.89,1.83-35.3,17.07-7.68,10.35v38.94c78.21,27.35,175.17,60,175.85,56,1.07-6.48,27,30.25,38.89,51.86,6.13,11.15,22.89,20.85,39.61,27.79V813q0-45.78-43.23-76.3Q934.78,706.16,934.78,660.37Z"/><path class="cls-1" d="M1240,609.5V558.63H985.65V609.5h101.74V890.13a370.61,370.61,0,0,0,50.87-23V609.5Z"/><polygon class="cls-3" points="1087.39 825.93 1108.38 808.9 1127.01 750.8 1087.39 750.64 1087.39 825.93"/><polygon class="cls-4" points="1087.39 825.93 1108.38 808.9 1127.01 750.8 1087.39 750.64 1087.39 825.93"/><path class="cls-1" d="M985.22,267.37V521.72h50.87V420H1188.7V521.72h50.87V293.82a374.48,374.48,0,0,0-59.1-54.1,48.41,48.41,0,0,1,8.23,27.65V369.11H1036.09V267.37q0-20.85,15-35.86t35.87-15h50.87a54.23,54.23,0,0,1,8,.6,370,370,0,0,0-104.58-40.71,105,105,0,0,0-26.06,19.25Q985.22,225.67,985.22,267.37Z"/><path class="cls-2" d="M1011.17,199.92c-.14,1-.3,2-.49,3-2,11.23-9.06,19.42-18.2,26.22a99.63,99.63,0,0,0-7.26,38.2v22.16c19.06-6.19,35.26-19.14,51.72-31.68a49,49,0,0,1,14.15-26.34q15-15,35.87-15h50.87c1.32,0,2.61.06,3.89.15l1.93-.81a369.62,369.62,0,0,0-102.36-39.45,105,105,0,0,0-26.06,19.25C1013.83,197.05,1012.47,198.48,1011.17,199.92Z"/><path class="cls-2" d="M1188.7,297.91v71.2h-64.14c-3.06,11.06-10.17,20.64-20.85,24.46-23.91,8.54-117.69-63.41-94.65-8.87,25.34,60.52-75.9,107.29,26.3,82.89l.73-.17V420H1188.7v80.38c14-1.32,15.52,8.8,17.63,21.36h33.24V293.82A376,376,0,0,0,1211,264.71C1205.77,278.24,1197.73,290.42,1188.7,297.91Z"/><path class="cls-4" d="M1188.7,369.11h-21.92c20.37,29.53,53.38,77.88,56.5,85.65,1.4,3.51,7.79,7.23,16.29,10.5V293.82q-8.53-9.68-17.71-18.75l-33.16,33.16Z"/><path class="cls-3" d="M1215.66,345.5s11.64,16.69,23.91,34.68V321.59Z"/><path class="cls-4" d="M1137.83,216.5a52.78,52.78,0,0,1,8,.6,370.41,370.41,0,0,0-44.39-21.81c-.4,7.44-.77,14.55-1.13,21.21Z"/><path class="cls-4" d="M1036.09,362.32V334.84l-11.26,11.26S1029.33,352.55,1036.09,362.32Z"/><path class="cls-4" d="M1188.7,369.11H1040.78c10.16,14.73,23.47,34.15,34.65,50.87H1188.7v40.16c16.36-10.33,38.07-20.75,50.87-8.39V293.82a374.48,374.48,0,0,0-59.1-54.1,48.41,48.41,0,0,1,8.23,27.65Z"/><path class="cls-3" d="M1153.25,217.71l.57.33Z"/><path class="cls-3" d="M1145.87,217.1l-.27-.15v.1Z"/><path class="cls-3" d="M1188.7,369.11H1106c12.45,18.12,28.35,41.56,33.78,50.87h48.93v17.47a11.27,11.27,0,0,0,4.68-1.19c7.08-4.25,31.49-24.59,46.19-17.75V293.82a374.48,374.48,0,0,0-59.1-54.1,48.41,48.41,0,0,1,8.23,27.65Z"/></svg>